<!DOCTYPE svg PUBLIC "-//W3C//DTD SVG 1.1//EN" "http://www.w3.org/Graphics/SVG/1.1/DTD/svg11.dtd">
<!-- Uploaded to: SVG Repo, www.svgrepo.com, Transformed by: SVG Repo Mixer Tools -->
<svg fill="#000000" width="800px" height="800px" viewBox="0 0 24 24" id="user-circle-2" data-name="Flat Color" xmlns="http://www.w3.org/2000/svg" class="icon flat-color">
<g id="SVGRepo_bgCarrier" stroke-width="0"/>
<g id="SVGRepo_tracerCarrier" stroke-linecap="round" stroke-linejoin="round" stroke="#e0e0e0" stroke-width="3.8400000000000007">
<circle id="primary" cx="12" cy="12" r="10" style="fill: #e0e0e0;"/>
<path id="secondary" d="M19.37,17.88a8,8,0,0,0-3.43-3.83,5,5,0,1,0-7.88,0,8,8,0,0,0-3.43,3.83A1,1,0,0,0,4.83,19a10,10,0,0,0,14.24.1l.09-.09A1,1,0,0,0,19.37,17.88Z" style="fill: #ffffff;"/>
</g>
<g id="SVGRepo_iconCarrier">
<circle id="primary" cx="12" cy="12" r="10" style="fill: #e0e0e0;"/>
<path id="secondary" d="M19.37,17.88a8,8,0,0,0-3.43-3.83,5,5,0,1,0-7.88,0,8,8,0,0,0-3.43,3.83A1,1,0,0,0,4.83,19a10,10,0,0,0,14.24.1l.09-.09A1,1,0,0,0,19.37,17.88Z" style="fill: #ffffff;"/>
</g>
</svg>